<svg width="222" height="60" viewBox="0 0 222 60" fill="none" xmlns="http://www.w3.org/2000/svg">
<rect x="0.5" y="0.5" width="221" height="59" rx="29.5" stroke="#267CE2"/>
<circle cx="35" cy="30" r="22" fill="url(#paint0_linear_147_84)"/>
<path d="M42.3594 35.6562C42.3594 37.0104 42.0312 38.1875 41.375 39.1875C40.7188 40.1875 39.7604 40.9583 38.5 41.5C37.25 42.0417 35.7292 42.3125 33.9375 42.3125C33.1458 42.3125 32.3698 42.2604 31.6094 42.1562C30.8594 42.0521 30.1354 41.901 29.4375 41.7031C28.75 41.4948 28.0938 41.2396 27.4688 40.9375V36.4375C28.5521 36.9167 29.6771 37.349 30.8438 37.7344C32.0104 38.1198 33.1667 38.3125 34.3125 38.3125C35.1042 38.3125 35.7396 38.2083 36.2188 38C36.7083 37.7917 37.0625 37.5052 37.2812 37.1406C37.5 36.776 37.6094 36.3594 37.6094 35.8906C37.6094 35.3177 37.4167 34.8281 37.0312 34.4219C36.6458 34.0156 36.1146 33.6354 35.4375 33.2812C34.7708 32.9271 34.0156 32.5469 33.1719 32.1406C32.6406 31.8906 32.0625 31.5885 31.4375 31.2344C30.8125 30.8698 30.2188 30.4271 29.6562 29.9062C29.0938 29.3854 28.6302 28.7552 28.2656 28.0156C27.9115 27.2656 27.7344 26.3698 27.7344 25.3281C27.7344 23.9635 28.0469 22.7969 28.6719 21.8281C29.2969 20.8594 30.1875 20.1198 31.3438 19.6094C32.5104 19.0885 33.8854 18.8281 35.4688 18.8281C36.6562 18.8281 37.7865 18.9688 38.8594 19.25C39.9427 19.5208 41.0729 19.9167 42.25 20.4375L40.6875 24.2031C39.6354 23.776 38.6927 23.4479 37.8594 23.2188C37.026 22.9792 36.1771 22.8594 35.3125 22.8594C34.7083 22.8594 34.1927 22.9583 33.7656 23.1562C33.3385 23.3438 33.0156 23.6146 32.7969 23.9688C32.5781 24.3125 32.4688 24.7135 32.4688 25.1719C32.4688 25.7135 32.625 26.1719 32.9375 26.5469C33.2604 26.9115 33.7396 27.2656 34.375 27.6094C35.0208 27.9531 35.8229 28.3542 36.7812 28.8125C37.9479 29.3646 38.9427 29.9427 39.7656 30.5469C40.599 31.1406 41.2396 31.8438 41.6875 32.6562C42.1354 33.4583 42.3594 34.4583 42.3594 35.6562Z" fill="white"/>
<path d="M74.2905 40L68.2969 24.2041H68.1992C68.2318 24.5378 68.2603 24.9447 68.2847 25.4248C68.3091 25.9049 68.3294 26.4299 68.3457 26.9995C68.362 27.561 68.3701 28.1348 68.3701 28.7207V40H66.4414V22.1533H69.5176L75.1694 36.9971H75.2549L80.9922 22.1533H84.0439V40H81.9932V28.5742C81.9932 28.0452 82.0013 27.5163 82.0176 26.9873C82.0339 26.4502 82.0542 25.9456 82.0786 25.4736C82.103 24.9935 82.1274 24.5785 82.1519 24.2285H82.0542L75.9873 40H74.2905ZM86.5098 26.6211H88.6826L91.6367 34.3848C91.8076 34.8405 91.9663 35.2799 92.1128 35.7031C92.2593 36.1182 92.3895 36.5169 92.5034 36.8994C92.6174 37.2819 92.7069 37.6522 92.772 38.0103H92.8574C92.9714 37.6034 93.1341 37.0703 93.3457 36.4111C93.5573 35.7438 93.7852 35.0643 94.0293 34.3726L96.8247 26.6211H99.0098L93.187 41.9653C92.8778 42.7873 92.5156 43.5034 92.1006 44.1138C91.6937 44.7241 91.1973 45.1921 90.6113 45.5176C90.0254 45.8512 89.3174 46.0181 88.4873 46.0181C88.1048 46.0181 87.7671 45.9937 87.4741 45.9448C87.1812 45.9041 86.9289 45.8553 86.7173 45.7983V44.1748C86.8963 44.2155 87.112 44.2521 87.3643 44.2847C87.6247 44.3172 87.8932 44.3335 88.1699 44.3335C88.6745 44.3335 89.1099 44.2358 89.4761 44.0405C89.8504 43.8534 90.1719 43.5767 90.4404 43.2104C90.709 42.8442 90.9409 42.4089 91.1362 41.9043L91.8687 40.0244L86.5098 26.6211ZM119.139 40L116.942 34.3359H109.789L107.604 40H105.504L112.486 22.0801H114.354L121.288 40H119.139ZM116.319 32.4927L114.232 26.8652C114.183 26.7188 114.102 26.4787 113.988 26.145C113.882 25.8114 113.772 25.4655 113.658 25.1074C113.544 24.7493 113.451 24.4604 113.377 24.2407C113.296 24.5744 113.207 24.908 113.109 25.2417C113.019 25.5672 112.93 25.8724 112.84 26.1572C112.751 26.4339 112.674 26.6699 112.608 26.8652L110.484 32.4927H116.319ZM128.819 40.2441C127.615 40.2441 126.553 39.9959 125.633 39.4995C124.714 39.0031 123.998 38.2463 123.485 37.229C122.972 36.2118 122.716 34.93 122.716 33.3838C122.716 31.7643 122.984 30.4419 123.521 29.4165C124.067 28.383 124.815 27.618 125.768 27.1216C126.72 26.6252 127.802 26.377 129.015 26.377C129.682 26.377 130.325 26.4461 130.943 26.5845C131.57 26.7147 132.083 26.8815 132.481 27.085L131.871 28.7817C131.464 28.619 130.992 28.4725 130.455 28.3423C129.926 28.2121 129.43 28.147 128.966 28.147C128.038 28.147 127.265 28.3464 126.646 28.7451C126.036 29.1439 125.576 29.7298 125.267 30.5029C124.966 31.276 124.815 32.2282 124.815 33.3594C124.815 34.4417 124.962 35.3654 125.255 36.1304C125.556 36.8953 126 37.4813 126.585 37.8882C127.18 38.2869 127.92 38.4863 128.807 38.4863C129.515 38.4863 130.154 38.4131 130.724 38.2666C131.293 38.112 131.81 37.9329 132.274 37.7295V39.5361C131.826 39.764 131.326 39.939 130.772 40.061C130.227 40.1831 129.576 40.2441 128.819 40.2441ZM140.807 40.2441C139.602 40.2441 138.54 39.9959 137.621 39.4995C136.701 39.0031 135.985 38.2463 135.472 37.229C134.959 36.2118 134.703 34.93 134.703 33.3838C134.703 31.7643 134.972 30.4419 135.509 29.4165C136.054 28.383 136.803 27.618 137.755 27.1216C138.707 26.6252 139.789 26.377 141.002 26.377C141.669 26.377 142.312 26.4461 142.931 26.5845C143.557 26.7147 144.07 26.8815 144.469 27.085L143.858 28.7817C143.451 28.619 142.979 28.4725 142.442 28.3423C141.913 28.2121 141.417 28.147 140.953 28.147C140.025 28.147 139.252 28.3464 138.634 28.7451C138.023 29.1439 137.564 29.7298 137.254 30.5029C136.953 31.276 136.803 32.2282 136.803 33.3594C136.803 34.4417 136.949 35.3654 137.242 36.1304C137.543 36.8953 137.987 37.4813 138.573 37.8882C139.167 38.2869 139.907 38.4863 140.794 38.4863C141.502 38.4863 142.141 38.4131 142.711 38.2666C143.281 38.112 143.797 37.9329 144.261 37.7295V39.5361C143.814 39.764 143.313 39.939 142.76 40.061C142.215 40.1831 141.563 40.2441 140.807 40.2441ZM158.971 33.2861C158.971 34.3848 158.828 35.3654 158.543 36.228C158.259 37.0907 157.848 37.819 157.311 38.4131C156.773 39.0072 156.122 39.4629 155.357 39.7803C154.601 40.0895 153.742 40.2441 152.782 40.2441C151.887 40.2441 151.065 40.0895 150.316 39.7803C149.575 39.4629 148.932 39.0072 148.387 38.4131C147.85 37.819 147.431 37.0907 147.13 36.228C146.837 35.3654 146.69 34.3848 146.69 33.2861C146.69 31.8213 146.939 30.5762 147.435 29.5508C147.931 28.5173 148.639 27.7319 149.559 27.1948C150.487 26.6496 151.59 26.377 152.867 26.377C154.088 26.377 155.154 26.6496 156.065 27.1948C156.985 27.7401 157.697 28.5295 158.202 29.563C158.714 30.5884 158.971 31.8294 158.971 33.2861ZM148.79 33.2861C148.79 34.3604 148.932 35.2922 149.217 36.0815C149.502 36.8709 149.942 37.4813 150.536 37.9126C151.13 38.3439 151.895 38.5596 152.831 38.5596C153.758 38.5596 154.519 38.3439 155.113 37.9126C155.715 37.4813 156.159 36.8709 156.444 36.0815C156.729 35.2922 156.871 34.3604 156.871 33.2861C156.871 32.2201 156.729 31.3005 156.444 30.5273C156.159 29.7461 155.72 29.1439 155.125 28.7207C154.531 28.2975 153.762 28.0859 152.818 28.0859C151.427 28.0859 150.405 28.5457 149.754 29.4653C149.111 30.3849 148.79 31.6585 148.79 33.2861ZM173.521 26.6211V40H171.861L171.568 38.1201H171.458C171.182 38.584 170.824 38.9746 170.384 39.292C169.945 39.6094 169.448 39.8454 168.895 40C168.35 40.1628 167.768 40.2441 167.149 40.2441C166.091 40.2441 165.204 40.0732 164.488 39.7314C163.772 39.3896 163.231 38.8607 162.865 38.1445C162.507 37.4284 162.328 36.5088 162.328 35.3857V26.6211H164.378V35.2393C164.378 36.3542 164.631 37.1883 165.135 37.7417C165.64 38.2869 166.409 38.5596 167.442 38.5596C168.435 38.5596 169.225 38.3724 169.811 37.998C170.405 37.6237 170.832 37.0744 171.092 36.3501C171.353 35.6177 171.483 34.7225 171.483 33.6646V26.6211H173.521ZM184.142 26.377C185.729 26.377 186.929 26.7676 187.743 27.5488C188.556 28.3219 188.963 29.5671 188.963 31.2842V40H186.961V31.4185C186.961 30.3035 186.705 29.4694 186.192 28.916C185.688 28.3626 184.911 28.0859 183.861 28.0859C182.38 28.0859 181.338 28.505 180.736 29.3433C180.134 30.1815 179.833 31.3981 179.833 32.9932V40H177.806V26.6211H179.442L179.747 28.5498H179.857C180.142 28.0778 180.504 27.6831 180.943 27.3657C181.383 27.0402 181.875 26.7961 182.42 26.6333C182.966 26.4624 183.539 26.377 184.142 26.377ZM197.459 38.584C197.793 38.584 198.135 38.5555 198.485 38.4985C198.835 38.4416 199.12 38.3724 199.339 38.291V39.8657C199.103 39.9715 198.774 40.061 198.351 40.1343C197.936 40.2075 197.529 40.2441 197.13 40.2441C196.422 40.2441 195.779 40.1221 195.201 39.8779C194.623 39.6257 194.16 39.2025 193.81 38.6084C193.468 38.0143 193.297 37.1924 193.297 36.1426V28.208H191.393V27.2192L193.309 26.4258L194.115 23.5205H195.335V26.6211H199.254V28.208H195.335V36.0815C195.335 36.9198 195.527 37.5464 195.909 37.9614C196.3 38.3765 196.817 38.584 197.459 38.584Z" fill="black"/>
<defs>
<linearGradient id="paint0_linear_147_84" x1="35" y1="8" x2="35" y2="52" gradientUnits="userSpaceOnUse">
<stop stop-color="#F16B24"/>
<stop offset="1" stop-color="#8B3E15"/>
</linearGradient>
</defs>
</svg>
